HIERARCHY
ROOT root
{
	OFFSET 0.000000 0.000000 0.000000
	CHANNELS 6 Xposition Yposition Zposition Zrotation Yrotation Xrotation
	JOINT lhip
	{
		OFFSET 0.058581 -0.082280 -0.017664
		CHANNELS 3 Zrotation Yrotation Xrotation
		JOINT lknee
		{
			OFFSET 0.043451 -0.386469 0.008037
			CHANNELS 3 Zrotation Yrotation Xrotation
			JOINT lankle
			{
				OFFSET -0.014790 -0.426874 -0.037428
				CHANNELS 3 Zrotation Yrotation Xrotation
				JOINT ltoe
				{
					OFFSET 0.041054 -0.060286 0.122042
					CHANNELS 3 Zrotation Yrotation Xrotation
					End Site
					{
						OFFSET 0.000000 0.000000 0.000000
					}
				}
			}
		}
	}
	JOINT rhip
	{
		OFFSET -0.060310 -0.090513 -0.013543
		CHANNELS 3 Zrotation Yrotation Xrotation
		JOINT rknee
		{
			OFFSET -0.043257 -0.383688 -0.004843
			CHANNELS 3 Zrotation Yrotation Xrotation
			JOINT rankle
			{
				OFFSET 0.019056 -0.420046 -0.034562
				CHANNELS 3 Zrotation Yrotation Xrotation
				JOINT rtoe
				{
					OFFSET -0.034840 -0.062106 0.130323
					CHANNELS 3 Zrotation Yrotation Xrotation
					End Site
					{
						OFFSET 0.000000 0.000000 0.000000
					}
				}
			}
		}
	}
	JOINT lowerback
	{
		OFFSET 0.004439 0.124404 -0.038385
		CHANNELS 3 Zrotation Yrotation Xrotation
		JOINT upperback
		{
			OFFSET 0.004488 0.137956 0.026820
			CHANNELS 3 Zrotation Yrotation Xrotation
			JOINT chest
			{
				OFFSET -0.002265 0.056032 0.002855
				CHANNELS 3 Zrotation Yrotation Xrotation
				JOINT lowerneck
				{
					OFFSET -0.013390 0.211636 -0.033468
					CHANNELS 3 Zrotation Yrotation Xrotation
					JOINT upperneck
					{
						OFFSET 0.010113 0.088937 0.050410
						CHANNELS 3 Zrotation Yrotation Xrotation
						End Site
						{
							OFFSET 0.000000 0.000000 0.000000
						}
					}
				}
				JOINT lclavicle
				{
					OFFSET 0.071702 0.114000 -0.018898
					CHANNELS 3 Zrotation Yrotation Xrotation
					JOINT lshoulder
					{
						OFFSET 0.122921 0.045205 -0.019046
						CHANNELS 3 Zrotation Yrotation Xrotation
						JOINT lelbow
						{
							OFFSET 0.255332 -0.015649 -0.022946
							CHANNELS 3 Zrotation Yrotation Xrotation
							JOINT lwrist
							{
								OFFSET 0.265709 0.012698 -0.007375
								CHANNELS 3 Zrotation Yrotation Xrotation
								End Site
								{
									OFFSET 0.000000 0.000000 0.000000
								}
							}
						}
					}
				}
				JOINT rclavicle
				{
					OFFSET -0.082954 0.112472 -0.023707
					CHANNELS 3 Zrotation Yrotation Xrotation
					JOINT rshoulder
					{
						OFFSET -0.113228 0.046853 -0.008472
						CHANNELS 3 Zrotation Yrotation Xrotation
						JOINT relbow
						{
							OFFSET -0.260127 -0.014369 -0.031269
							CHANNELS 3 Zrotation Yrotation Xrotation
							JOINT rwrist
							{
								OFFSET -0.269108 0.006794 -0.006027
								CHANNELS 3 Zrotation Yrotation Xrotation
								End Site
								{
									OFFSET 0.000000 0.000000 0.000000
								}
							}
						}
					}
				}
			}
		}
	}
}
MOTION
Frames: 5
Frame Time: 0.033333
-0.015524 0.251588 1.010972 84.782315 0.828627 91.927437 0.858370 1.501692 -2.662211 0.742156 -4.478709 0.693243 -1.058786 11.401526 -3.203234 0.000000 -0.000000 0.000000 -1.732664 -2.381658 -4.018871 -2.611682 3.896274 -0.356923 3.837324 -8.004368 -0.116606 0.000000 -0.000000 0.000000 2.395437 2.755477 5.615705 1.870099 -4.670750 13.538055 0.236469 0.609684 -9.492564 -0.948117 -2.545646 -8.452666 5.360190 -3.721079 -10.511587 -24.182068 -19.048240 5.655375 -57.255403 -13.406715 22.780456 6.193887 -20.989936 18.413395 -11.331642 -6.450992 17.270803 22.241875 18.380927 6.300983 56.993566 9.451044 14.189598 -2.620433 17.072114 6.983329 13.783465 2.892702 -1.560920 
-0.015060 0.251056 1.011105 85.447790 0.653405 91.825143 0.644451 1.505098 -2.866596 0.783265 -4.705077 1.226437 -1.025999 10.967522 -3.302723 0.000000 -0.000000 0.000000 -1.990125 -2.705442 -3.981553 -2.465437 3.556918 0.148154 3.885361 -7.878831 -0.391946 0.000000 -0.000000 0.000000 2.220283 2.751146 5.445200 1.996292 -4.916820 13.507646 0.230798 0.398987 -9.545998 -1.060309 -2.505204 -8.278520 5.152349 -4.040159 -10.115834 -23.864547 -20.154214 5.794704 -58.009687 -15.110836 23.355360 5.169356 -22.638966 20.434281 -15.095889 -5.491531 18.247123 22.654815 19.062804 6.611691 57.988234 10.169087 15.351158 -1.996866 18.527125 11.035496 16.359426 1.396173 1.893756 
-0.014324 0.249527 1.011529 86.144042 0.535377 91.612628 0.669894 1.345116 -2.820717 0.642696 -4.933751 1.609588 -0.975797 10.664411 -3.507952 0.000000 -0.000000 0.000000 -2.059025 -2.758376 -3.797790 -2.418468 3.292338 0.719067 3.797267 -8.021014 -0.680101 0.000000 -0.000000 0.000000 2.021461 2.791123 5.353008 2.075245 -5.075065 13.606624 0.202871 0.289216 -9.787381 -1.250930 -2.671436 -8.121304 5.092594 -4.335003 -9.661098 -23.917813 -21.337931 5.950908 -57.515013 -16.693448 24.281922 2.723483 -25.168337 24.235532 -18.965846 -5.219537 19.516444 22.942946 19.823205 6.742684 58.586747 10.290301 16.828200 -0.743622 21.038574 15.992134 18.552908 0.481565 4.950703 
-0.013047 0.248352 1.012307 87.138249 0.418569 91.201203 0.644714 1.167750 -2.530374 0.510653 -5.512024 1.903986 -0.785949 10.489480 -3.704247 0.000000 -0.000000 0.000000 -2.166176 -3.060795 -3.341676 -2.327794 3.123890 1.302485 3.684277 -8.413512 -1.102445 0.000000 -0.000000 0.000000 1.904943 2.869805 5.076767 2.077895 -5.490389 14.157948 0.085031 0.170386 -9.995845 -1.560816 -2.883056 -8.228468 5.210282 -4.347141 -9.170536 -24.108002 -22.888544 6.381802 -55.544777 -18.366483 24.501186 -1.241153 -29.338104 28.583912 -22.983200 -4.228624 20.616709 23.435684 20.702316 7.147177 57.827151 10.514021 17.623831 1.416455 24.719506 21.730840 21.174550 -0.796564 8.963721 
-0.012664 0.246832 1.012576 88.314218 0.425286 91.049127 0.761998 0.947569 -2.829354 0.379933 -6.119177 2.574095 -0.803612 10.189461 -4.017193 0.000000 -0.000000 0.000000 -1.978650 -3.196932 -3.375322 -2.379034 2.758438 2.173291 3.510036 -8.892120 -1.663129 0.000000 -0.000000 0.000000 1.731777 2.882484 4.464556 2.102289 -5.824274 14.755131 -0.097543 0.154132 -10.108216 -1.873899 -3.006732 -8.356857 5.648758 -4.844467 -8.680225 -23.868606 -24.356140 6.265014 -52.859562 -20.322207 24.895169 -6.143436 -34.327185 32.892925 -26.246653 -4.124995 20.604797 23.687744 21.722678 7.253216 56.617157 10.635643 18.128815 3.826413 28.183234 24.320312 22.890099 -0.914515 9.391020 
